<?xml version="1.0" encoding="windows-1252" standalone="no"?>
<svg xmlns="http://www.w3.org/2000/svg" xmlns:xlink="http://www.w3.org/1999/xlink" contentStyleType="text/css" height="766px" preserveAspectRatio="none" style="width:325px;height:766px;background:#FFFFFF;" version="1.1" viewBox="0 0 325 766" width="325px" zoomAndPan="magnify"><defs/><g><ellipse cx="164.5" cy="20" fill="#222222" rx="10" ry="10" style="stroke:#222222;stroke-width:1.0;"/><rect fill="#F1F1F1" height="33.9688" rx="12.5" ry="12.5" style="stroke:#181818;stroke-width:0.5;" width="203" x="63" y="50"/><text fill="#000000" font-family="sans-serif" font-size="12" lengthAdjust="spacing" textLength="183" x="73" y="71.1387">NetworkTime.before_tick_loop</text><rect fill="#F1F1F1" height="33.9688" rx="12.5" ry="12.5" style="stroke:#181818;stroke-width:0.5;" width="170" x="79.5" y="159.6792"/><text fill="#000000" font-family="sans-serif" font-size="12" lengthAdjust="spacing" textLength="150" x="89.5" y="180.8179">NetworkTime.before_tick</text><rect fill="#F1F1F1" height="33.9688" rx="12.5" ry="12.5" style="stroke:#181818;stroke-width:0.5;" width="144" x="92.5" y="213.6479"/><text fill="#000000" font-family="sans-serif" font-size="12" lengthAdjust="spacing" textLength="124" x="102.5" y="234.7866">NetworkTime.on_tick</text><rect fill="#F1F1F1" height="33.9688" rx="12.5" ry="12.5" style="stroke:#181818;stroke-width:0.5;" width="197" x="66" y="267.6167"/><text fill="#000000" font-family="sans-serif" font-size="12" lengthAdjust="spacing" textLength="177" x="76" y="288.7554">NetworkRollback.before_loop</text><rect fill="#F1F1F1" height="33.9688" rx="12.5" ry="12.5" style="stroke:#181818;stroke-width:0.5;" width="220" x="54.5" y="365.5854"/><text fill="#000000" font-family="sans-serif" font-size="12" lengthAdjust="spacing" textLength="200" x="64.5" y="386.7241">NetworkRollback.on_prepare_tick</text><rect fill="#F1F1F1" height="33.9688" rx="12.5" ry="12.5" style="stroke:#181818;stroke-width:0.5;" width="221" x="54" y="419.5542"/><text fill="#000000" font-family="sans-serif" font-size="12" lengthAdjust="spacing" textLength="201" x="64" y="440.6929">NetworkRollback.on_process_tick</text><rect fill="#F1F1F1" height="33.9688" rx="12.5" ry="12.5" style="stroke:#181818;stroke-width:0.5;" width="212" x="58.5" y="473.5229"/><text fill="#000000" font-family="sans-serif" font-size="12" lengthAdjust="spacing" textLength="192" x="68.5" y="494.6616">NetworkRollback.on_record_tick</text><polygon fill="#F1F1F1" points="141.5,321.5854,187.5,321.5854,199.5,333.5854,187.5,345.5854,141.5,345.5854,129.5,333.5854,141.5,321.5854" style="stroke:#181818;stroke-width:0.5;"/><text fill="#000000" font-family="sans-serif" font-size="11" lengthAdjust="spacing" textLength="46" x="141.5" y="337.3936">Rollback</text><rect fill="#F1F1F1" height="33.9688" rx="12.5" ry="12.5" style="stroke:#181818;stroke-width:0.5;" width="184" x="72.5" y="549.4917"/><text fill="#000000" font-family="sans-serif" font-size="12" lengthAdjust="spacing" textLength="164" x="82.5" y="570.6304">NetworkRollback.after_loop</text><rect fill="#F1F1F1" height="33.9688" rx="12.5" ry="12.5" style="stroke:#181818;stroke-width:0.5;" width="157" x="86" y="603.4604"/><text fill="#000000" font-family="sans-serif" font-size="12" lengthAdjust="spacing" textLength="137" x="96" y="624.5991">NetworkTime.after_tick</text><polygon fill="#F1F1F1" points="116.5,103.9688,212.5,103.9688,224.5,115.9688,212.5,127.9688,116.5,127.9688,104.5,115.9688,116.5,103.9688" style="stroke:#181818;stroke-width:0.5;"/><text fill="#000000" font-family="sans-serif" font-size="11" lengthAdjust="spacing" textLength="16" x="168.5" y="138.1792">&gt;0</text><text fill="#000000" font-family="sans-serif" font-size="11" lengthAdjust="spacing" textLength="96" x="116.5" y="119.7769">Ticks to simulate</text><text fill="#000000" font-family="sans-serif" font-size="11" lengthAdjust="spacing" textLength="7" x="97.5" y="113.3745">0</text><rect fill="#F1F1F1" height="33.9688" rx="12.5" ry="12.5" style="stroke:#181818;stroke-width:0.5;" width="190" x="69.5" y="679.4292"/><text fill="#000000" font-family="sans-serif" font-size="12" lengthAdjust="spacing" textLength="170" x="79.5" y="700.5679">NetworkTime.after_tick_loop</text><ellipse cx="164.5" cy="744.3979" fill="none" rx="11" ry="11" style="stroke:#222222;stroke-width:1.0;"/><ellipse cx="164.5" cy="744.3979" fill="#222222" rx="6" ry="6" style="stroke:#222222;stroke-width:1.0;"/><line style="stroke:#181818;stroke-width:1.0;" x1="164.5" x2="164.5" y1="30" y2="50"/><polygon fill="#181818" points="160.5,40,164.5,50,168.5,40,164.5,44" style="stroke:#181818;stroke-width:1.0;"/><line style="stroke:#181818;stroke-width:1.0;" x1="164.5" x2="164.5" y1="193.6479" y2="213.6479"/><polygon fill="#181818" points="160.5,203.6479,164.5,213.6479,168.5,203.6479,164.5,207.6479" style="stroke:#181818;stroke-width:1.0;"/><line style="stroke:#181818;stroke-width:1.0;" x1="164.5" x2="164.5" y1="247.6167" y2="267.6167"/><polygon fill="#181818" points="160.5,257.6167,164.5,267.6167,168.5,257.6167,164.5,261.6167" style="stroke:#181818;stroke-width:1.0;"/><line style="stroke:#181818;stroke-width:1.0;" x1="164.5" x2="164.5" y1="399.5542" y2="419.5542"/><polygon fill="#181818" points="160.5,409.5542,164.5,419.5542,168.5,409.5542,164.5,413.5542" style="stroke:#181818;stroke-width:1.0;"/><line style="stroke:#181818;stroke-width:1.0;" x1="164.5" x2="164.5" y1="453.5229" y2="473.5229"/><polygon fill="#181818" points="160.5,463.5229,164.5,473.5229,168.5,463.5229,164.5,467.5229" style="stroke:#181818;stroke-width:1.0;"/><line style="stroke:#181818;stroke-width:1.0;" x1="164.5" x2="164.5" y1="345.5854" y2="365.5854"/><polygon fill="#181818" points="160.5,355.5854,164.5,365.5854,168.5,355.5854,164.5,359.5854" style="stroke:#181818;stroke-width:1.0;"/><line style="stroke:#181818;stroke-width:1.0;" x1="164.5" x2="164.5" y1="507.4917" y2="517.4917"/><line style="stroke:#181818;stroke-width:1.0;" x1="164.5" x2="287" y1="517.4917" y2="517.4917"/><polygon fill="#181818" points="283,434.5386,287,424.5386,291,434.5386,287,430.5386" style="stroke:#181818;stroke-width:1.0;"/><line style="stroke:#181818;stroke-width:1.0;" x1="287" x2="287" y1="333.5854" y2="517.4917"/><line style="stroke:#181818;stroke-width:1.0;" x1="287" x2="199.5" y1="333.5854" y2="333.5854"/><polygon fill="#181818" points="209.5,329.5854,199.5,333.5854,209.5,337.5854,205.5,333.5854" style="stroke:#181818;stroke-width:1.0;"/><line style="stroke:#181818;stroke-width:1.0;" x1="129.5" x2="42" y1="333.5854" y2="333.5854"/><polygon fill="#181818" points="38,420.5386,42,430.5386,46,420.5386,42,424.5386" style="stroke:#181818;stroke-width:1.0;"/><line style="stroke:#181818;stroke-width:1.0;" x1="42" x2="42" y1="333.5854" y2="529.4917"/><line style="stroke:#181818;stroke-width:1.0;" x1="42" x2="164.5" y1="529.4917" y2="529.4917"/><line style="stroke:#181818;stroke-width:1.0;" x1="164.5" x2="164.5" y1="529.4917" y2="549.4917"/><polygon fill="#181818" points="160.5,539.4917,164.5,549.4917,168.5,539.4917,164.5,543.4917" style="stroke:#181818;stroke-width:1.0;"/><line style="stroke:#181818;stroke-width:1.0;" x1="164.5" x2="164.5" y1="301.5854" y2="321.5854"/><polygon fill="#181818" points="160.5,311.5854,164.5,321.5854,168.5,311.5854,164.5,315.5854" style="stroke:#181818;stroke-width:1.0;"/><line style="stroke:#181818;stroke-width:1.0;" x1="164.5" x2="164.5" y1="583.4604" y2="603.4604"/><polygon fill="#181818" points="160.5,593.4604,164.5,603.4604,168.5,593.4604,164.5,597.4604" style="stroke:#181818;stroke-width:1.0;"/><line style="stroke:#181818;stroke-width:1.0;" x1="164.5" x2="164.5" y1="127.9688" y2="159.6792"/><polygon fill="#181818" points="160.5,149.6792,164.5,159.6792,168.5,149.6792,164.5,153.6792" style="stroke:#181818;stroke-width:1.0;"/><line style="stroke:#181818;stroke-width:1.0;" x1="164.5" x2="164.5" y1="637.4292" y2="647.4292"/><line style="stroke:#181818;stroke-width:1.0;" x1="164.5" x2="299" y1="647.4292" y2="647.4292"/><polygon fill="#181818" points="295,396.6519,299,386.6519,303,396.6519,299,392.6519" style="stroke:#181818;stroke-width:1.0;"/><line style="stroke:#181818;stroke-width:1.0;" x1="299" x2="299" y1="115.9688" y2="647.4292"/><line style="stroke:#181818;stroke-width:1.0;" x1="299" x2="224.5" y1="115.9688" y2="115.9688"/><polygon fill="#181818" points="234.5,111.9688,224.5,115.9688,234.5,119.9688,230.5,115.9688" style="stroke:#181818;stroke-width:1.0;"/><line style="stroke:#181818;stroke-width:1.0;" x1="104.5" x2="24" y1="115.9688" y2="115.9688"/><polygon fill="#181818" points="20,382.6519,24,392.6519,28,382.6519,24,386.6519" style="stroke:#181818;stroke-width:1.0;"/><line style="stroke:#181818;stroke-width:1.0;" x1="24" x2="24" y1="115.9688" y2="659.4292"/><line style="stroke:#181818;stroke-width:1.0;" x1="24" x2="164.5" y1="659.4292" y2="659.4292"/><line style="stroke:#181818;stroke-width:1.0;" x1="164.5" x2="164.5" y1="659.4292" y2="679.4292"/><polygon fill="#181818" points="160.5,669.4292,164.5,679.4292,168.5,669.4292,164.5,673.4292" style="stroke:#181818;stroke-width:1.0;"/><line style="stroke:#181818;stroke-width:1.0;" x1="164.5" x2="164.5" y1="83.9688" y2="103.9688"/><polygon fill="#181818" points="160.5,93.9688,164.5,103.9688,168.5,93.9688,164.5,97.9688" style="stroke:#181818;stroke-width:1.0;"/><line style="stroke:#181818;stroke-width:1.0;" x1="164.5" x2="164.5" y1="713.3979" y2="733.3979"/><polygon fill="#181818" points="160.5,723.3979,164.5,733.3979,168.5,723.3979,164.5,727.3979" style="stroke:#181818;stroke-width:1.0;"/><!--SRC=[XL0x3eCm3Drp2ezXgJeNgKVeKB6ZD1Wr8k38TiNrIq51_O2w-dtzH1shCQSBwaZSLQ77mmrROgmr-AwEHAaqPho7Y62hwIIW11BwHtIA1K0GiETZOG3sJCflZ8QV-vLYl3dVPTsI2p07suo-KZOqarzYJEujRuz57aN-i1WzSREIS6Zc5bjjNQl8QzcF9nTeCSaMOAUXp0ujRorAwGa0]--></g></svg>