<?xml version="1.0" encoding="windows-1252" standalone="no"?>
<svg xmlns="http://www.w3.org/2000/svg" xmlns:xlink="http://www.w3.org/1999/xlink" contentStyleType="text/css" height="567px" preserveAspectRatio="none" style="width:378px;height:567px;background:#FFFFFF;" version="1.1" viewBox="0 0 378 567" width="378px" zoomAndPan="magnify"><defs/><g><line style="stroke:#181818;stroke-width:0.5;stroke-dasharray:5.0,5.0;" x1="37" x2="37" y1="81.2969" y2="486.8906"/><line style="stroke:#181818;stroke-width:0.5;stroke-dasharray:5.0,5.0;" x1="113" x2="113" y1="81.2969" y2="486.8906"/><line style="stroke:#181818;stroke-width:0.5;stroke-dasharray:5.0,5.0;" x1="191" x2="191" y1="81.2969" y2="486.8906"/><line style="stroke:#181818;stroke-width:0.5;stroke-dasharray:5.0,5.0;" x1="268" x2="268" y1="81.2969" y2="486.8906"/><line style="stroke:#181818;stroke-width:0.5;stroke-dasharray:5.0,5.0;" x1="345" x2="345" y1="81.2969" y2="486.8906"/><text fill="#000000" font-family="sans-serif" font-size="14" lengthAdjust="spacing" textLength="58" x="5" y="77.9951">Player A</text><ellipse cx="37" cy="13.5" fill="#E2E2F0" rx="8" ry="8" style="stroke:#181818;stroke-width:0.5;"/><path d="M37,21.5 L37,48.5 M24,29.5 L50,29.5 M37,48.5 L24,63.5 M37,48.5 L50,63.5 " fill="none" style="stroke:#181818;stroke-width:0.5;"/><text fill="#000000" font-family="sans-serif" font-size="14" lengthAdjust="spacing" textLength="58" x="5" y="498.8857">Player A</text><ellipse cx="37" cy="510.6875" fill="#E2E2F0" rx="8" ry="8" style="stroke:#181818;stroke-width:0.5;"/><path d="M37,518.6875 L37,545.6875 M24,526.6875 L50,526.6875 M37,545.6875 L24,560.6875 M37,545.6875 L50,560.6875 " fill="none" style="stroke:#181818;stroke-width:0.5;"/><text fill="#000000" font-family="sans-serif" font-size="14" lengthAdjust="spacing" textLength="63" x="79" y="77.9951">Router A</text><ellipse cx="113.5" cy="49" fill="#E2E2F0" rx="12" ry="12" style="stroke:#181818;stroke-width:0.5;"/><line style="stroke:#181818;stroke-width:0.5;" x1="101.5" x2="125.5" y1="63" y2="63"/><text fill="#000000" font-family="sans-serif" font-size="14" lengthAdjust="spacing" textLength="63" x="79" y="498.8857">Router A</text><ellipse cx="113.5" cy="518.1875" fill="#E2E2F0" rx="12" ry="12" style="stroke:#181818;stroke-width:0.5;"/><line style="stroke:#181818;stroke-width:0.5;" x1="101.5" x2="125.5" y1="532.1875" y2="532.1875"/><text fill="#000000" font-family="sans-serif" font-size="14" lengthAdjust="spacing" textLength="60" x="158" y="77.9951">Internet</text><path d="M170.5,37 L170.5,61 M170.5,49 L187.5,49 " fill="none" style="stroke:#181818;stroke-width:0.5;"/><ellipse cx="199.5" cy="49" fill="#E2E2F0" rx="12" ry="12" style="stroke:#181818;stroke-width:0.5;"/><text fill="#000000" font-family="sans-serif" font-size="14" lengthAdjust="spacing" textLength="60" x="158" y="498.8857">Internet</text><path d="M170.5,506.1875 L170.5,530.1875 M170.5,518.1875 L187.5,518.1875 " fill="none" style="stroke:#181818;stroke-width:0.5;"/><ellipse cx="199.5" cy="518.1875" fill="#E2E2F0" rx="12" ry="12" style="stroke:#181818;stroke-width:0.5;"/><text fill="#000000" font-family="sans-serif" font-size="14" lengthAdjust="spacing" textLength="63" x="234" y="77.9951">Router B</text><ellipse cx="268.5" cy="49" fill="#E2E2F0" rx="12" ry="12" style="stroke:#181818;stroke-width:0.5;"/><line style="stroke:#181818;stroke-width:0.5;" x1="256.5" x2="280.5" y1="63" y2="63"/><text fill="#000000" font-family="sans-serif" font-size="14" lengthAdjust="spacing" textLength="63" x="234" y="498.8857">Router B</text><ellipse cx="268.5" cy="518.1875" fill="#E2E2F0" rx="12" ry="12" style="stroke:#181818;stroke-width:0.5;"/><line style="stroke:#181818;stroke-width:0.5;" x1="256.5" x2="280.5" y1="532.1875" y2="532.1875"/><text fill="#000000" font-family="sans-serif" font-size="14" lengthAdjust="spacing" textLength="58" x="313" y="77.9951">Player B</text><ellipse cx="345" cy="13.5" fill="#E2E2F0" rx="8" ry="8" style="stroke:#181818;stroke-width:0.5;"/><path d="M345,21.5 L345,48.5 M332,29.5 L358,29.5 M345,48.5 L332,63.5 M345,48.5 L358,63.5 " fill="none" style="stroke:#181818;stroke-width:0.5;"/><text fill="#000000" font-family="sans-serif" font-size="14" lengthAdjust="spacing" textLength="58" x="313" y="498.8857">Player B</text><ellipse cx="345" cy="510.6875" fill="#E2E2F0" rx="8" ry="8" style="stroke:#181818;stroke-width:0.5;"/><path d="M345,518.6875 L345,545.6875 M332,526.6875 L358,526.6875 M345,545.6875 L332,560.6875 M345,545.6875 L358,560.6875 " fill="none" style="stroke:#181818;stroke-width:0.5;"/><line style="stroke:#181818;stroke-width:2.0;" x1="250.5" x2="260.5" y1="107.4297" y2="117.4297"/><line style="stroke:#181818;stroke-width:2.0;" x1="250.5" x2="260.5" y1="117.4297" y2="107.4297"/><line style="stroke:#181818;stroke-width:1.0;" x1="37" x2="255.5" y1="112.4297" y2="112.4297"/><text fill="#000000" font-family="sans-serif" font-size="13" lengthAdjust="spacing" textLength="29" x="44" y="107.3638">$-w-</text><path d="M213,125.4297 L213,150.4297 L324,150.4297 L324,135.4297 L314,125.4297 L213,125.4297 " fill="#FEFFDD" style="stroke:#181818;stroke-width:0.5;"/><path d="M314,125.4297 L314,135.4297 L324,135.4297 L314,125.4297 " fill="#FEFFDD" style="stroke:#181818;stroke-width:0.5;"/><text fill="#000000" font-family="sans-serif" font-size="13" lengthAdjust="spacing" textLength="90" x="219" y="142.4966">Packet denied</text><line style="stroke:#181818;stroke-width:2.0;" x1="120.5" x2="130.5" y1="171.6953" y2="181.6953"/><line style="stroke:#181818;stroke-width:2.0;" x1="120.5" x2="130.5" y1="181.6953" y2="171.6953"/><line style="stroke:#181818;stroke-width:1.0;" x1="125.5" x2="344" y1="176.6953" y2="176.6953"/><text fill="#000000" font-family="sans-serif" font-size="13" lengthAdjust="spacing" textLength="29" x="130.5" y="171.6294">$-w-</text><path d="M58,189.6953 L58,214.6953 L169,214.6953 L169,199.6953 L159,189.6953 L58,189.6953 " fill="#FEFFDD" style="stroke:#181818;stroke-width:0.5;"/><path d="M159,189.6953 L159,199.6953 L169,199.6953 L159,189.6953 " fill="#FEFFDD" style="stroke:#181818;stroke-width:0.5;"/><text fill="#000000" font-family="sans-serif" font-size="13" lengthAdjust="spacing" textLength="90" x="64" y="206.7622">Packet denied</text><path d="M69,224.8281 L69,249.8281 L312,249.8281 L312,234.8281 L302,224.8281 L69,224.8281 " fill="#FEFFDD" style="stroke:#181818;stroke-width:0.5;"/><path d="M302,224.8281 L302,234.8281 L312,234.8281 L302,224.8281 " fill="#FEFFDD" style="stroke:#181818;stroke-width:0.5;"/><text fill="#000000" font-family="sans-serif" font-size="13" lengthAdjust="spacing" textLength="222" x="75" y="241.895">NAT table updated on both routers</text><polygon fill="#181818" points="333,272.0938,343,276.0938,333,280.0938,337,276.0938" style="stroke:#181818;stroke-width:1.0;"/><line style="stroke:#181818;stroke-width:1.0;" x1="37" x2="339" y1="276.0938" y2="276.0938"/><text fill="#000000" font-family="sans-serif" font-size="13" lengthAdjust="spacing" textLength="29" x="44" y="271.0278">$-w-</text><path d="M208,289.0938 L208,314.0938 L328,314.0938 L328,299.0938 L318,289.0938 L208,289.0938 " fill="#FEFFDD" style="stroke:#181818;stroke-width:0.5;"/><path d="M318,289.0938 L318,299.0938 L328,299.0938 L318,289.0938 " fill="#FEFFDD" style="stroke:#181818;stroke-width:0.5;"/><text fill="#000000" font-family="sans-serif" font-size="13" lengthAdjust="spacing" textLength="99" x="214" y="306.1606">Packed allowed</text><polygon fill="#181818" points="48,336.3594,38,340.3594,48,344.3594,44,340.3594" style="stroke:#181818;stroke-width:1.0;"/><line style="stroke:#181818;stroke-width:1.0;" x1="42" x2="344" y1="340.3594" y2="340.3594"/><text fill="#000000" font-family="sans-serif" font-size="13" lengthAdjust="spacing" textLength="29" x="54" y="335.2935">$-w-</text><path d="M208,353.3594 L208,378.3594 L328,378.3594 L328,363.3594 L318,353.3594 L208,353.3594 " fill="#FEFFDD" style="stroke:#181818;stroke-width:0.5;"/><path d="M318,353.3594 L318,363.3594 L328,363.3594 L318,353.3594 " fill="#FEFFDD" style="stroke:#181818;stroke-width:0.5;"/><text fill="#000000" font-family="sans-serif" font-size="13" lengthAdjust="spacing" textLength="99" x="214" y="370.4263">Packed allowed</text><polygon fill="#181818" points="333,400.625,343,404.625,333,408.625,337,404.625" style="stroke:#181818;stroke-width:1.0;"/><line style="stroke:#181818;stroke-width:1.0;" x1="37" x2="339" y1="404.625" y2="404.625"/><text fill="#000000" font-family="sans-serif" font-size="13" lengthAdjust="spacing" textLength="32" x="44" y="399.5591">$rwx</text><polygon fill="#181818" points="48,429.7578,38,433.7578,48,437.7578,44,433.7578" style="stroke:#181818;stroke-width:1.0;"/><line style="stroke:#181818;stroke-width:1.0;" x1="42" x2="344" y1="433.7578" y2="433.7578"/><text fill="#000000" font-family="sans-serif" font-size="13" lengthAdjust="spacing" textLength="32" x="54" y="428.6919">$rwx</text><path d="M106,446.7578 L106,471.7578 L276,471.7578 L276,456.7578 L266,446.7578 L106,446.7578 " fill="#90EE90" style="stroke:#181818;stroke-width:0.5;"/><path d="M266,446.7578 L266,456.7578 L276,456.7578 L266,446.7578 " fill="#90EE90" style="stroke:#181818;stroke-width:0.5;"/><text fill="#000000" font-family="sans-serif" font-size="13" lengthAdjust="spacing" textLength="149" x="112" y="463.8247">Connection established</text><!--SRC=[ZP1DQiCm48NtEiN3wRA-W1S1gQjkGZ2zmDWQOb4nAl8uZczVEQPf-WTTwitt7X-YNbD6TOoqS8QjG2EiOT6W2wesJNgBMskwD8cdlE1PIYwiQtvW_LvmMy4P-ZA_nSuOYtf_ANSqUAZdsaXIHZeNf7KDZjI_bcdF4jWRupRO_WBR7_3zyV6wTh0lKEeYOthpfEoH15tI0VagEsuwS7-xU52CQVwGWVqNUblDy-MpjpxkYkNpi8lXDEWfCqk3foJ2lOOYoUFg7SQ1_Ji0]--></g></svg>