<?xml version="1.0" encoding="windows-1252" standalone="no"?>
<svg xmlns="http://www.w3.org/2000/svg" xmlns:xlink="http://www.w3.org/1999/xlink" contentStyleType="text/css" height="386px" preserveAspectRatio="none" style="width:220px;height:386px;background:#FFFFFF;" version="1.1" viewBox="0 0 220 386" width="220px" zoomAndPan="magnify"><defs/><g><line style="stroke:#181818;stroke-width:0.5;stroke-dasharray:5.0,5.0;" x1="37" x2="37" y1="81.2969" y2="305.2266"/><line style="stroke:#181818;stroke-width:0.5;stroke-dasharray:5.0,5.0;" x1="112" x2="112" y1="81.2969" y2="305.2266"/><line style="stroke:#181818;stroke-width:0.5;stroke-dasharray:5.0,5.0;" x1="187" x2="187" y1="81.2969" y2="305.2266"/><text fill="#000000" font-family="sans-serif" font-size="14" lengthAdjust="spacing" textLength="58" x="5" y="77.9951">Player A</text><ellipse cx="37" cy="13.5" fill="#E2E2F0" rx="8" ry="8" style="stroke:#181818;stroke-width:0.5;"/><path d="M37,21.5 L37,48.5 M24,29.5 L50,29.5 M37,48.5 L24,63.5 M37,48.5 L50,63.5 " fill="none" style="stroke:#181818;stroke-width:0.5;"/><text fill="#000000" font-family="sans-serif" font-size="14" lengthAdjust="spacing" textLength="58" x="5" y="317.2217">Player A</text><ellipse cx="37" cy="329.0234" fill="#E2E2F0" rx="8" ry="8" style="stroke:#181818;stroke-width:0.5;"/><path d="M37,337.0234 L37,364.0234 M24,345.0234 L50,345.0234 M37,364.0234 L24,379.0234 M37,364.0234 L50,379.0234 " fill="none" style="stroke:#181818;stroke-width:0.5;"/><text fill="#000000" font-family="sans-serif" font-size="14" lengthAdjust="spacing" textLength="60" x="79" y="77.9951">Internet</text><path d="M91.5,37 L91.5,61 M91.5,49 L108.5,49 " fill="none" style="stroke:#181818;stroke-width:0.5;"/><ellipse cx="120.5" cy="49" fill="#E2E2F0" rx="12" ry="12" style="stroke:#181818;stroke-width:0.5;"/><text fill="#000000" font-family="sans-serif" font-size="14" lengthAdjust="spacing" textLength="60" x="79" y="317.2217">Internet</text><path d="M91.5,324.5234 L91.5,348.5234 M91.5,336.5234 L108.5,336.5234 " fill="none" style="stroke:#181818;stroke-width:0.5;"/><ellipse cx="120.5" cy="336.5234" fill="#E2E2F0" rx="12" ry="12" style="stroke:#181818;stroke-width:0.5;"/><text fill="#000000" font-family="sans-serif" font-size="14" lengthAdjust="spacing" textLength="58" x="155" y="77.9951">Player B</text><ellipse cx="187" cy="13.5" fill="#E2E2F0" rx="8" ry="8" style="stroke:#181818;stroke-width:0.5;"/><path d="M187,21.5 L187,48.5 M174,29.5 L200,29.5 M187,48.5 L174,63.5 M187,48.5 L200,63.5 " fill="none" style="stroke:#181818;stroke-width:0.5;"/><text fill="#000000" font-family="sans-serif" font-size="14" lengthAdjust="spacing" textLength="58" x="155" y="317.2217">Player B</text><ellipse cx="187" cy="329.0234" fill="#E2E2F0" rx="8" ry="8" style="stroke:#181818;stroke-width:0.5;"/><path d="M187,337.0234 L187,364.0234 M174,345.0234 L200,345.0234 M187,364.0234 L174,379.0234 M187,364.0234 L200,379.0234 " fill="none" style="stroke:#181818;stroke-width:0.5;"/><polygon fill="#181818" points="100,108.4297,110,112.4297,100,116.4297,104,112.4297" style="stroke:#181818;stroke-width:1.0;"/><line style="stroke:#181818;stroke-width:1.0;" x1="37" x2="106" y1="112.4297" y2="112.4297"/><text fill="#000000" font-family="sans-serif" font-size="13" lengthAdjust="spacing" textLength="39" x="44" y="107.3638">"$-w-"</text><polygon fill="#181818" points="123,137.5625,113,141.5625,123,145.5625,119,141.5625" style="stroke:#181818;stroke-width:1.0;"/><line style="stroke:#181818;stroke-width:1.0;" x1="117" x2="186" y1="141.5625" y2="141.5625"/><text fill="#000000" font-family="sans-serif" font-size="13" lengthAdjust="spacing" textLength="39" x="129" y="136.4966">"$-w-"</text><polygon fill="#181818" points="175,166.6953,185,170.6953,175,174.6953,179,170.6953" style="stroke:#181818;stroke-width:1.0;"/><line style="stroke:#181818;stroke-width:1.0;" x1="37" x2="181" y1="170.6953" y2="170.6953"/><text fill="#000000" font-family="sans-serif" font-size="13" lengthAdjust="spacing" textLength="39" x="44" y="165.6294">"$-w-"</text><polygon fill="#181818" points="48,195.8281,38,199.8281,48,203.8281,44,199.8281" style="stroke:#181818;stroke-width:1.0;"/><line style="stroke:#181818;stroke-width:1.0;" x1="42" x2="186" y1="199.8281" y2="199.8281"/><text fill="#000000" font-family="sans-serif" font-size="13" lengthAdjust="spacing" textLength="39" x="54" y="194.7622">"$rw-"</text><polygon fill="#181818" points="175,224.9609,185,228.9609,175,232.9609,179,228.9609" style="stroke:#181818;stroke-width:1.0;"/><line style="stroke:#181818;stroke-width:1.0;" x1="37" x2="181" y1="228.9609" y2="228.9609"/><text fill="#000000" font-family="sans-serif" font-size="13" lengthAdjust="spacing" textLength="39" x="44" y="223.895">"$rw-"</text><polygon fill="#181818" points="48,254.0938,38,258.0938,48,262.0938,44,258.0938" style="stroke:#181818;stroke-width:1.0;"/><line style="stroke:#181818;stroke-width:1.0;" x1="42" x2="186" y1="258.0938" y2="258.0938"/><text fill="#000000" font-family="sans-serif" font-size="13" lengthAdjust="spacing" textLength="42" x="54" y="253.0278">"$rwx"</text><polygon fill="#181818" points="175,283.2266,185,287.2266,175,291.2266,179,287.2266" style="stroke:#181818;stroke-width:1.0;"/><line style="stroke:#181818;stroke-width:1.0;" x1="37" x2="181" y1="287.2266" y2="287.2266"/><text fill="#000000" font-family="sans-serif" font-size="13" lengthAdjust="spacing" textLength="42" x="44" y="282.1606">"$rwx"</text><!--SRC=[POex2e0m343td284rrx0GMWt5_4AKRD92x5YUtjf4S4wlW-lCIZIl7CMHKl81rfOmkatreoZZw9UOj6JHE3Fxkhk02oQeNJiaJfp6GBtc5VKnJM3hQnDrrzFJKzq0m00]--></g></svg>