<?xml version="1.0" encoding="UTF-8" standalone="no"?>
<svg
   width="64"
   height="64"
   version="1.1"
   id="svg1"
   sodipodi:docname="RigidBody2D.svg"
   inkscape:version="1.4 (e7c3feb100, 2024-10-09)"
   xmlns:inkscape="http://www.inkscape.org/namespaces/inkscape"
   xmlns:sodipodi="http://sodipodi.sourceforge.net/DTD/sodipodi-0.dtd"
   xmlns="http://www.w3.org/2000/svg"
   xmlns:svg="http://www.w3.org/2000/svg">
  <defs
     id="defs1" />
  <sodipodi:namedview
     id="namedview1"
     pagecolor="#ffffff"
     bordercolor="#000000"
     borderopacity="0.25"
     inkscape:showpageshadow="2"
     inkscape:pageopacity="0.0"
     inkscape:pagecheckerboard="0"
     inkscape:deskcolor="#d1d1d1"
     inkscape:zoom="1"
     inkscape:cx="-213"
     inkscape:cy="-49"
     inkscape:window-width="2560"
     inkscape:window-height="1048"
     inkscape:window-x="0"
     inkscape:window-y="0"
     inkscape:window-maximized="1"
     inkscape:current-layer="svg1" />
  <path
     fill="#8da5f3"
     d="m 32,4 a 28,28 0 0 0 0,56 28,28 0 0 0 0,-56 z m 7.804,5.336 A 24,24 0 0 1 56.004,32 h -28 a 8,8 0 0 0 -3.8,-6.8 C 29.588,17.084 34.62,12.148 39.804,9.332 Z m -27.312,8.72 c 0.584,2.6 1.432,5.132 2.736,7.536 A 8,8 0 0 0 12,32 H 8 A 24,24 0 0 1 12.492,18.056 Z M 15.2,38.4 a 8,8 0 0 0 9.6,0 c 5.888,8.108 10.912,13.056 15.2,16 a 24,24 0 0 1 -28.6,-10 c 1,-2.4 2,-4 3.8,-6 z"
     id="path1"
     style="stroke-width:4" />
  <g
     id="g9"
     transform="translate(0,3.3)">
    <path
       id="path1_00000101101429107098172700000017609064003007162547_"
       class="st1"
       d="M 32,40.2 23.8,56.6 15.6,40.2 Z"
       style="fill:#5fff97" />
    <path
       id="path2_00000126280959979031010980000006949781421479937947_"
       class="st2"
       d="M 48.4,56.7 40.2,40.3 32,56.7 Z"
       style="fill:#ff5f5f" />
  </g>
</svg>
