<?xml version="1.0" encoding="UTF-8" standalone="no"?>
<svg
   width="16"
   height="16"
   version="1.1"
   id="svg1"
   sodipodi:docname="network-rigid-body-3d.svg"
   inkscape:version="1.4.2 (ebf0e940d0, 2025-05-08)"
   xmlns:inkscape="http://www.inkscape.org/namespaces/inkscape"
   xmlns:sodipodi="http://sodipodi.sourceforge.net/DTD/sodipodi-0.dtd"
   xmlns="http://www.w3.org/2000/svg"
   xmlns:svg="http://www.w3.org/2000/svg">
  <defs
     id="defs1" />
  <sodipodi:namedview
     id="namedview1"
     pagecolor="#ffffff"
     bordercolor="#000000"
     borderopacity="0.25"
     inkscape:showpageshadow="2"
     inkscape:pageopacity="0.0"
     inkscape:pagecheckerboard="0"
     inkscape:deskcolor="#d1d1d1"
     inkscape:zoom="21.364726"
     inkscape:cx="21.109561"
     inkscape:cy="8.776148"
     inkscape:window-width="2560"
     inkscape:window-height="1043"
     inkscape:window-x="0"
     inkscape:window-y="0"
     inkscape:window-maximized="1"
     inkscape:current-layer="svg1" />
  <path
     fill="#fc7f7f"
     d="M 8,1 A 7,7 0 0 0 8,15 7,7 0 0 0 8,1 Z M 9.951,2.334 A 6,6 0 0 1 14.001,8 h -7 A 2,2 0 0 0 6.051,6.3 C 7.397,4.271 8.655,3.037 9.951,2.333 Z m -6.828,2.18 c 0.146,0.65 0.358,1.283 0.684,1.884 A 2,2 0 0 0 3,8 H 2 A 6,6 0 0 1 3.123,4.514 Z M 3.8,9.6 a 2,2 0 0 0 2.4,0 c 1.472,2.027 2.728,3.264 3.8,4 A 6,6 0 0 1 2.85,11.1 c 0.25,-0.6 0.5,-1 0.95,-1.5 z"
     id="path1"
     style="stroke-width:1" />
  <g
     id="g9"
     transform="matrix(0.25,0,0,0.25,0,0.825)">
    <path
       id="path1_00000101101429107098172700000017609064003007162547_"
       class="st1"
       d="M 32,40.2 23.8,56.6 15.6,40.2 Z"
       style="fill:#5fff97" />
    <path
       id="path2_00000126280959979031010980000006949781421479937947_"
       class="st2"
       d="M 48.4,56.7 40.2,40.3 32,56.7 Z"
       style="fill:#ff5f5f" />
  </g>
</svg>
