<?xml version="1.0" encoding="windows-1252" standalone="no"?>
<svg xmlns="http://www.w3.org/2000/svg" xmlns:xlink="http://www.w3.org/1999/xlink" contentStyleType="text/css" height="430px" preserveAspectRatio="none" style="width:194px;height:430px;background:#FFFFFF;" version="1.1" viewBox="0 0 194 430" width="194px" zoomAndPan="magnify"><defs/><g><ellipse cx="96" cy="20" fill="#222222" rx="10" ry="10" style="stroke:#222222;stroke-width:1.0;"/><rect fill="#F1F1F1" height="33.9688" rx="12.5" ry="12.5" style="stroke:#181818;stroke-width:0.5;" width="121" x="35.5" y="50"/><text fill="#000000" font-family="sans-serif" font-size="12" lengthAdjust="spacing" textLength="101" x="45.5" y="71.1387">before_tick_loop</text><rect fill="#F1F1F1" height="33.9688" rx="12.5" ry="12.5" style="stroke:#181818;stroke-width:0.5;" width="88" x="52" y="159.6792"/><text fill="#000000" font-family="sans-serif" font-size="12" lengthAdjust="spacing" textLength="68" x="62" y="180.8179">before_tick</text><rect fill="#F1F1F1" height="33.9688" rx="12.5" ry="12.5" style="stroke:#181818;stroke-width:0.5;" width="62" x="65" y="213.6479"/><text fill="#000000" font-family="sans-serif" font-size="12" lengthAdjust="spacing" textLength="42" x="75" y="234.7866">on_tick</text><rect fill="#F1F1F1" height="33.9688" rx="12.5" ry="12.5" style="stroke:#181818;stroke-width:0.5;" width="75" x="58.5" y="267.6167"/><text fill="#000000" font-family="sans-serif" font-size="12" lengthAdjust="spacing" textLength="55" x="68.5" y="288.7554">after_tick</text><polygon fill="#F1F1F1" points="48,103.9688,144,103.9688,156,115.9688,144,127.9688,48,127.9688,36,115.9688,48,103.9688" style="stroke:#181818;stroke-width:0.5;"/><text fill="#000000" font-family="sans-serif" font-size="11" lengthAdjust="spacing" textLength="16" x="100" y="138.1792">&gt;0</text><text fill="#000000" font-family="sans-serif" font-size="11" lengthAdjust="spacing" textLength="96" x="48" y="119.7769">Ticks to simulate</text><text fill="#000000" font-family="sans-serif" font-size="11" lengthAdjust="spacing" textLength="7" x="29" y="113.3745">0</text><rect fill="#F1F1F1" height="33.9688" rx="12.5" ry="12.5" style="stroke:#181818;stroke-width:0.5;" width="108" x="42" y="343.5854"/><text fill="#000000" font-family="sans-serif" font-size="12" lengthAdjust="spacing" textLength="88" x="52" y="364.7241">after_tick_loop</text><ellipse cx="96" cy="408.5542" fill="none" rx="11" ry="11" style="stroke:#222222;stroke-width:1.0;"/><ellipse cx="96" cy="408.5542" fill="#222222" rx="6" ry="6" style="stroke:#222222;stroke-width:1.0;"/><line style="stroke:#181818;stroke-width:1.0;" x1="96" x2="96" y1="30" y2="50"/><polygon fill="#181818" points="92,40,96,50,100,40,96,44" style="stroke:#181818;stroke-width:1.0;"/><line style="stroke:#181818;stroke-width:1.0;" x1="96" x2="96" y1="193.6479" y2="213.6479"/><polygon fill="#181818" points="92,203.6479,96,213.6479,100,203.6479,96,207.6479" style="stroke:#181818;stroke-width:1.0;"/><line style="stroke:#181818;stroke-width:1.0;" x1="96" x2="96" y1="247.6167" y2="267.6167"/><polygon fill="#181818" points="92,257.6167,96,267.6167,100,257.6167,96,261.6167" style="stroke:#181818;stroke-width:1.0;"/><line style="stroke:#181818;stroke-width:1.0;" x1="96" x2="96" y1="127.9688" y2="159.6792"/><polygon fill="#181818" points="92,149.6792,96,159.6792,100,149.6792,96,153.6792" style="stroke:#181818;stroke-width:1.0;"/><line style="stroke:#181818;stroke-width:1.0;" x1="96" x2="96" y1="301.5854" y2="311.5854"/><line style="stroke:#181818;stroke-width:1.0;" x1="96" x2="168" y1="311.5854" y2="311.5854"/><polygon fill="#181818" points="164,222.23,168,212.23,172,222.23,168,218.23" style="stroke:#181818;stroke-width:1.0;"/><line style="stroke:#181818;stroke-width:1.0;" x1="168" x2="168" y1="115.9688" y2="311.5854"/><line style="stroke:#181818;stroke-width:1.0;" x1="168" x2="156" y1="115.9688" y2="115.9688"/><polygon fill="#181818" points="166,111.9688,156,115.9688,166,119.9688,162,115.9688" style="stroke:#181818;stroke-width:1.0;"/><line style="stroke:#181818;stroke-width:1.0;" x1="36" x2="24" y1="115.9688" y2="115.9688"/><polygon fill="#181818" points="20,208.23,24,218.23,28,208.23,24,212.23" style="stroke:#181818;stroke-width:1.0;"/><line style="stroke:#181818;stroke-width:1.0;" x1="24" x2="24" y1="115.9688" y2="323.5854"/><line style="stroke:#181818;stroke-width:1.0;" x1="24" x2="96" y1="323.5854" y2="323.5854"/><line style="stroke:#181818;stroke-width:1.0;" x1="96" x2="96" y1="323.5854" y2="343.5854"/><polygon fill="#181818" points="92,333.5854,96,343.5854,100,333.5854,96,337.5854" style="stroke:#181818;stroke-width:1.0;"/><line style="stroke:#181818;stroke-width:1.0;" x1="96" x2="96" y1="83.9688" y2="103.9688"/><polygon fill="#181818" points="92,93.9688,96,103.9688,100,93.9688,96,97.9688" style="stroke:#181818;stroke-width:1.0;"/><line style="stroke:#181818;stroke-width:1.0;" x1="96" x2="96" y1="377.5542" y2="397.5542"/><polygon fill="#181818" points="92,387.5542,96,397.5542,100,387.5542,96,391.5542" style="stroke:#181818;stroke-width:1.0;"/><!--SRC=[JOt12e0m34Fl_OeUvysp0x_2-vXQSJXNMIl-lXCcUijBI2Bgim9q8osSoMcODXUP3mjmhI4Icg5OWieeOJ-ZLseGWw3fsmOG_qNxCATF-qKfLwGqry7IWr_qtedoSGC0]--></g></svg>