<?xml version="1.0" encoding="windows-1252" standalone="no"?>
<svg xmlns="http://www.w3.org/2000/svg" xmlns:xlink="http://www.w3.org/1999/xlink" contentStyleType="text/css" height="418px" preserveAspectRatio="none" style="width:192px;height:418px;background:#FFFFFF;" version="1.1" viewBox="0 0 192 418" width="192px" zoomAndPan="magnify"><defs/><g><ellipse cx="95" cy="20" fill="#222222" rx="10" ry="10" style="stroke:#222222;stroke-width:1.0;"/><rect fill="#F1F1F1" height="33.9688" rx="12.5" ry="12.5" style="stroke:#181818;stroke-width:0.5;" width="94" x="48" y="50"/><text fill="#000000" font-family="sans-serif" font-size="12" lengthAdjust="spacing" textLength="74" x="58" y="71.1387">before_loop</text><rect fill="#F1F1F1" height="33.9688" rx="12.5" ry="12.5" style="stroke:#181818;stroke-width:0.5;" width="117" x="36.5" y="147.9688"/><text fill="#000000" font-family="sans-serif" font-size="12" lengthAdjust="spacing" textLength="97" x="46.5" y="169.1074">on_prepare_tick</text><rect fill="#F1F1F1" height="33.9688" rx="12.5" ry="12.5" style="stroke:#181818;stroke-width:0.5;" width="118" x="36" y="201.9375"/><text fill="#000000" font-family="sans-serif" font-size="12" lengthAdjust="spacing" textLength="98" x="46" y="223.0762">on_process_tick</text><rect fill="#F1F1F1" height="33.9688" rx="12.5" ry="12.5" style="stroke:#181818;stroke-width:0.5;" width="109" x="40.5" y="255.9063"/><text fill="#000000" font-family="sans-serif" font-size="12" lengthAdjust="spacing" textLength="89" x="50.5" y="277.0449">on_record_tick</text><polygon fill="#F1F1F1" points="72,103.9688,118,103.9688,130,115.9688,118,127.9688,72,127.9688,60,115.9688,72,103.9688" style="stroke:#181818;stroke-width:0.5;"/><text fill="#000000" font-family="sans-serif" font-size="11" lengthAdjust="spacing" textLength="46" x="72" y="119.7769">Rollback</text><rect fill="#F1F1F1" height="33.9688" rx="12.5" ry="12.5" style="stroke:#181818;stroke-width:0.5;" width="81" x="54.5" y="331.875"/><text fill="#000000" font-family="sans-serif" font-size="12" lengthAdjust="spacing" textLength="61" x="64.5" y="353.0137">after_loop</text><ellipse cx="95" cy="396.8438" fill="none" rx="11" ry="11" style="stroke:#222222;stroke-width:1.0;"/><ellipse cx="95" cy="396.8438" fill="#222222" rx="6" ry="6" style="stroke:#222222;stroke-width:1.0;"/><line style="stroke:#181818;stroke-width:1.0;" x1="95" x2="95" y1="30" y2="50"/><polygon fill="#181818" points="91,40,95,50,99,40,95,44" style="stroke:#181818;stroke-width:1.0;"/><line style="stroke:#181818;stroke-width:1.0;" x1="95" x2="95" y1="181.9375" y2="201.9375"/><polygon fill="#181818" points="91,191.9375,95,201.9375,99,191.9375,95,195.9375" style="stroke:#181818;stroke-width:1.0;"/><line style="stroke:#181818;stroke-width:1.0;" x1="95" x2="95" y1="235.9063" y2="255.9063"/><polygon fill="#181818" points="91,245.9063,95,255.9063,99,245.9063,95,249.9063" style="stroke:#181818;stroke-width:1.0;"/><line style="stroke:#181818;stroke-width:1.0;" x1="95" x2="95" y1="127.9688" y2="147.9688"/><polygon fill="#181818" points="91,137.9688,95,147.9688,99,137.9688,95,141.9688" style="stroke:#181818;stroke-width:1.0;"/><line style="stroke:#181818;stroke-width:1.0;" x1="95" x2="95" y1="289.875" y2="299.875"/><line style="stroke:#181818;stroke-width:1.0;" x1="95" x2="166" y1="299.875" y2="299.875"/><polygon fill="#181818" points="162,216.9219,166,206.9219,170,216.9219,166,212.9219" style="stroke:#181818;stroke-width:1.0;"/><line style="stroke:#181818;stroke-width:1.0;" x1="166" x2="166" y1="115.9688" y2="299.875"/><line style="stroke:#181818;stroke-width:1.0;" x1="166" x2="130" y1="115.9688" y2="115.9688"/><polygon fill="#181818" points="140,111.9688,130,115.9688,140,119.9688,136,115.9688" style="stroke:#181818;stroke-width:1.0;"/><line style="stroke:#181818;stroke-width:1.0;" x1="60" x2="24" y1="115.9688" y2="115.9688"/><polygon fill="#181818" points="20,202.9219,24,212.9219,28,202.9219,24,206.9219" style="stroke:#181818;stroke-width:1.0;"/><line style="stroke:#181818;stroke-width:1.0;" x1="24" x2="24" y1="115.9688" y2="311.875"/><line style="stroke:#181818;stroke-width:1.0;" x1="24" x2="95" y1="311.875" y2="311.875"/><line style="stroke:#181818;stroke-width:1.0;" x1="95" x2="95" y1="311.875" y2="331.875"/><polygon fill="#181818" points="91,321.875,95,331.875,99,321.875,95,325.875" style="stroke:#181818;stroke-width:1.0;"/><line style="stroke:#181818;stroke-width:1.0;" x1="95" x2="95" y1="83.9688" y2="103.9688"/><polygon fill="#181818" points="91,93.9688,95,103.9688,99,93.9688,95,97.9688" style="stroke:#181818;stroke-width:1.0;"/><line style="stroke:#181818;stroke-width:1.0;" x1="95" x2="95" y1="365.8438" y2="385.8438"/><polygon fill="#181818" points="91,375.8438,95,385.8438,99,375.8438,95,379.8438" style="stroke:#181818;stroke-width:1.0;"/><!--SRC=[LSrB2i0W34NHULRXiDs2xg8R43-HYc8a2NJxBKKAdHukxua6LW0RiH2ZxqJJmNNMZjj1lSUGsWx6M1f-CixmD5fJSvzHGf6VCIRYl0X7VjV0XgB8wm14QTu0]--></g></svg>